999
dxfrw 0.5.11
0
SECTION
2
HEADER
9
$ACADVER
1
AC1021
9
$HANDSEED
5
20000
9
$DWGCODEPAGE
3
ANSI_1252
9
$INSBASE
10
0
20
0
30
0
9
$EXTMIN
10
33.0414523601
20
-173.686202789
30
0
9
$EXTMAX
10
447.072704177
20
285.353678393
30
0
9
$LIMMIN
10
0
20
0
9
$LIMMAX
10
420
20
297
9
$ORTHOMODE
70
0
9
$LTSCALE
40
1
9
$TEXTSTYLE
7
STANDARD
9
$CLAYER
8
0
9
$DIMASZ
40
2.5
9
$DIMLFAC
40
1
9
$DIMSCALE
40
1
9
$DIMEXO
40
0.625
9
$DIMEXE
40
1.25
9
$DIMTXT
40
2.5
9
$DIMTSZ
40
0
9
$DIMAUNIT
70
0
9
$DIMADEC
70
0
9
$DIMLUNIT
70
2
9
$DIMSTYLE
2
Standard
9
$DIMGAP
40
0.625
9
$DIMTIH
70
0
9
$LUNITS
70
2
9
$LUPREC
70
4
9
$AUNITS
70
0
9
$AUPREC
70
2
9
$SPLINESEGS
70
8
9
$GRIDMODE
70
0
9
$SNAPSTYLE
70
0
9
$PINSBASE
10
0
20
0
30
0
9
$PLIMMIN
10
0
20
0
9
$PLIMMAX
10
210
20
297
9
$INSUNITS
70
4
9
$PSVPSCALE
40
1
0
ENDSEC
0
SECTION
2
CLASSES
0
ENDSEC
0
SECTION
2
TABLES
0
TABLE
2
VPORT
5
8
330
0
100
AcDbSymbolTable
70
1
0
VPORT
5
31
330
2
100
AcDbSymbolTableRecord
100
AcDbViewportTableRecord
2
*ACTIVE
70
0
10
0
20
0
11
1
21
1
12
240.265816378
22
70.9836734845
13
0
23
0
14
10
24
10
15
10
25
10
16
0
26
0
36
1
17
0
27
0
37
0
40
272.800000058
41
1.97704081633
42
50
43
0
44
0
50
0
51
0
71
0
72
100
73
1
74
3
75
0
76
0
77
0
78
0
281
0
65
1
110
0
120
0
130
0
111
1
121
0
131
0
112
0
122
1
132
0
79
0
146
0
348
10020
60
7
61
5
292
1
282
1
141
0
142
0
63
250
421
3358443
0
ENDTAB
0
TABLE
2
LTYPE
5
5
330
0
100
AcDbSymbolTable
70
4
0
LTYPE
5
14
330
5
100
AcDbSymbolTableRecord
100
AcDbLinetypeTableRecord
2
ByBlock
70
0
3

72
65
73
0
40
0
0
LTYPE
5
15
330
5
100
AcDbSymbolTableRecord
100
AcDbLinetypeTableRecord
2
ByLayer
70
0
3

72
65
73
0
40
0
0
LTYPE
5
16
330
5
100
AcDbSymbolTableRecord
100
AcDbLinetypeTableRecord
2
Continuous
70
0
3
Solid line
72
65
73
0
40
0
0
LTYPE
5
32
330
5
100
AcDbSymbolTableRecord
100
AcDbLinetypeTableRecord
2
DOT
70
0
3
Dot . . . . . . . . . . . . . . . . . . . . . .
72
65
73
2
40
6.35
49
0
74
0
49
-6.35
74
0
0
LTYPE
5
33
330
5
100
AcDbSymbolTableRecord
100
AcDbLinetypeTableRecord
2
DOT2
70
0
3
Dot (.5x) .....................................
72
65
73
2
40
3.175
49
0
74
0
49
-3.175
74
0
0
LTYPE
5
34
330
5
100
AcDbSymbolTableRecord
100
AcDbLinetypeTableRecord
2
DOTX2
70
0
3
Dot (2x) .  .  .  .  .  .  .  .  .  .  .  .  .
72
65
73
2
40
12.7
49
0
74
0
49
-12.7
74
0
0
LTYPE
5
35
330
5
100
AcDbSymbolTableRecord
100
AcDbLinetypeTableRecord
2
DASHED
70
0
3
Dot . . . . . . . . . . . . . . . . . . . . . .
72
65
73
2
40
19.05
49
12.7
74
0
49
-6.35
74
0
0
LTYPE
5
36
330
5
100
AcDbSymbolTableRecord
100
AcDbLinetypeTableRecord
2
DASHED2
70
0
3
Dashed (.5x) _ _ _ _ _ _ _ _ _ _ _ _ _ _ _ _ _
72
65
73
2
40
9.525
49
6.35
74
0
49
-3.175
74
0
0
LTYPE
5
37
330
5
100
AcDbSymbolTableRecord
100
AcDbLinetypeTableRecord
2
DASHEDX2
70
0
3
Dashed (2x) ____  ____  ____  ____  ____  ___
72
65
73
2
40
38.1
49
25.4
74
0
49
-12.7
74
0
0
LTYPE
5
38
330
5
100
AcDbSymbolTableRecord
100
AcDbLinetypeTableRecord
2
DASHDOT
70
0
3
Dash dot __ . __ . __ . __ . __ . __ . __ . __
72
65
73
4
40
25.4
49
12.7
74
0
49
-6.35
74
0
49
0
74
0
49
-6.35
74
0
0
LTYPE
5
39
330
5
100
AcDbSymbolTableRecord
100
AcDbLinetypeTableRecord
2
DASHDOT2
70
0
3
Dash dot (.5x) _._._._._._._._._._._._._._._.
72
65
73
4
40
12.7
49
6.35
74
0
49
-3.175
74
0
49
0
74
0
49
-3.175
74
0
0
LTYPE
5
3A
330
5
100
AcDbSymbolTableRecord
100
AcDbLinetypeTableRecord
2
DASHDOTX2
70
0
3
Dash dot (2x) ____  .  ____  .  ____  .  ___
72
65
73
4
40
50.8
49
25.4
74
0
49
-12.7
74
0
49
0
74
0
49
-12.7
74
0
0
LTYPE
5
3B
330
5
100
AcDbSymbolTableRecord
100
AcDbLinetypeTableRecord
2
DIVIDE
70
0
3
Divide ____ . . ____ . . ____ . . ____ . . ____
72
65
73
6
40
31.75
49
12.7
74
0
49
-6.35
74
0
49
0
74
0
49
-6.35
74
0
49
0
74
0
49
-6.35
74
0
0
LTYPE
5
3C
330
5
100
AcDbSymbolTableRecord
100
AcDbLinetypeTableRecord
2
DIVIDE2
70
0
3
Divide (.5x) __..__..__..__..__..__..__..__.._
72
65
73
6
40
15.875
49
6.35
74
0
49
-3.175
74
0
49
0
74
0
49
-3.175
74
0
49
0
74
0
49
-3.175
74
0
0
LTYPE
5
3D
330
5
100
AcDbSymbolTableRecord
100
AcDbLinetypeTableRecord
2
DIVIDEX2
70
0
3
Divide (2x) ________  .  .  ________  .  .  _
72
65
73
6
40
63.5
49
25.4
74
0
49
-12.7
74
0
49
0
74
0
49
-12.7
74
0
49
0
74
0
49
-12.7
74
0
0
LTYPE
5
3E
330
5
100
AcDbSymbolTableRecord
100
AcDbLinetypeTableRecord
2
BORDER
70
0
3
Border __ __ . __ __ . __ __ . __ __ . __ __ .
72
65
73
6
40
44.45
49
12.7
74
0
49
-6.35
74
0
49
12.7
74
0
49
-6.35
74
0
49
0
74
0
49
-6.35
74
0
0
LTYPE
5
3F
330
5
100
AcDbSymbolTableRecord
100
AcDbLinetypeTableRecord
2
BORDER2
70
0
3
Border (.5x) __.__.__.__.__.__.__.__.__.__.__.
72
65
73
6
40
22.225
49
6.35
74
0
49
-3.175
74
0
49
6.35
74
0
49
-3.175
74
0
49
0
74
0
49
-3.175
74
0
0
LTYPE
5
40
330
5
100
AcDbSymbolTableRecord
100
AcDbLinetypeTableRecord
2
BORDERX2
70
0
3
Border (2x) ____  ____  .  ____  ____  .  ___
72
65
73
6
40
88.9
49
25.4
74
0
49
-12.7
74
0
49
25.4
74
0
49
-12.7
74
0
49
0
74
0
49
-12.7
74
0
0
LTYPE
5
41
330
5
100
AcDbSymbolTableRecord
100
AcDbLinetypeTableRecord
2
CENTER
70
0
3
Center ____ _ ____ _ ____ _ ____ _ ____ _ ____
72
65
73
4
40
50.8
49
31.75
74
0
49
-6.35
74
0
49
6.35
74
0
49
-6.35
74
0
0
LTYPE
5
42
330
5
100
AcDbSymbolTableRecord
100
AcDbLinetypeTableRecord
2
CENTER2
70
0
3
Center (.5x) ___ _ ___ _ ___ _ ___ _ ___ _ ___
72
65
73
4
40
28.575
49
19.05
74
0
49
-3.175
74
0
49
3.175
74
0
49
-3.175
74
0
0
LTYPE
5
43
330
5
100
AcDbSymbolTableRecord
100
AcDbLinetypeTableRecord
2
CENTERX2
70
0
3
Center (2x) ________  __  ________  __  _____
72
65
73
4
40
101.6
49
63.5
74
0
49
-12.7
74
0
49
12.7
74
0
49
-12.7
74
0
0
ENDTAB
0
TABLE
2
LAYER
5
2
330
0
100
AcDbSymbolTable
70
1
0
LAYER
5
10
330
2
100
AcDbSymbolTableRecord
100
AcDbLayerTableRecord
2
0
70
4
62
7
6
CONTINUOUS
370
-3
390
F
0
LAYER
5
44
330
2
100
AcDbSymbolTableRecord
100
AcDbLayerTableRecord
2
FirstCut
70
4
62
2
6
CONTINUOUS
370
0
390
F
0
ENDTAB
0
TABLE
2
STYLE
5
3
330
0
100
AcDbSymbolTable
70
3
0
STYLE
5
45
330
2
100
AcDbSymbolTableRecord
100
AcDbTextStyleTableRecord
2
Standard
70
0
40
0
41
1
50
0
71
0
42
1
3
txt
4

0
ENDTAB
0
TABLE
2
VIEW
5
6
330
0
100
AcDbSymbolTable
70
0
0
ENDTAB
0
TABLE
2
UCS
5
7
330
0
100
AcDbSymbolTable
70
0
0
ENDTAB
0
TABLE
2
APPID
5
9
330
0
100
AcDbSymbolTable
70
1
0
APPID
5
12
330
9
100
AcDbSymbolTableRecord
100
AcDbRegAppTableRecord
2
ACAD
70
0
0
ENDTAB
0
TABLE
2
DIMSTYLE
5
A
330
0
100
AcDbSymbolTable
70
1
100
AcDbDimStyleTable
71
1
0
DIMSTYLE
105
46
330
A
100
AcDbSymbolTableRecord
100
AcDbDimStyleTableRecord
2
Standard
70
0
40
1
41
2.5
42
0.625
43
0.38
44
1.25
45
0
46
0
47
0
48
0
140
2.5
141
0.09
142
0
143
25.4
144
1
145
0
146
1
147
0.625
148
0
71
0
72
0
73
0
74
1
75
0
76
0
77
0
78
0
79
0
170
0
171
2
172
0
173
0
174
0
175
0
176
0
177
0
178
0
179
0
271
4
272
4
273
2
274
2
275
0
276
0
277
2
278
46
279
0
280
0
281
0
282
0
283
1
284
0
285
0
286
0
288
0
289
3
340
Standard
341

371
-2
372
-2
0
ENDTAB
0
TABLE
2
BLOCK_RECORD
5
1
330
0
100
AcDbSymbolTable
70
2
0
BLOCK_RECORD
5
1F
330
1
100
AcDbSymbolTableRecord
100
AcDbBlockTableRecord
2
*Model_Space
70
0
280
1
281
0
0
BLOCK_RECORD
5
1E
330
1
100
AcDbSymbolTableRecord
100
AcDbBlockTableRecord
2
*Paper_Space
70
0
280
1
281
0
0
BLOCK_RECORD
5
47
330
1
100
AcDbSymbolTableRecord
100
AcDbBlockTableRecord
2
VelcroSlot
70
0
280
1
281
0
0
ENDTAB
0
ENDSEC
0
SECTION
2
BLOCKS
0
BLOCK
5
20
330
1F
100
AcDbEntity
8
0
100
AcDbBlockBegin
2
*Model_Space
70
0
10
0
20
0
30
0
3
*Model_Space
1

0
ENDBLK
5
21
330
1F
100
AcDbEntity
8
0
100
AcDbBlockEnd
0
BLOCK
5
1C
330
1B
100
AcDbEntity
8
0
100
AcDbBlockBegin
2
*Paper_Space
70
0
10
0
20
0
30
0
3
*Paper_Space
1

0
ENDBLK
5
1D
330
1F
100
AcDbEntity
8
0
100
AcDbBlockEnd
0
BLOCK
5
48
330
47
100
AcDbEntity
8
0
100
AcDbBlockBegin
2
VelcroSlot
70
0
10
0
20
0
3
VelcroSlot
1

0
SPLINE
5
4A
100
AcDbEntity
8
FirstCut
6
ByLayer
62
256
370
-1
100
AcDbSpline
210
0
220
0
230
1
70
8
71
3
72
8
73
4
74
0
42
1e-07
43
1e-07
40
0
40
0
40
0
40
0
40
1
40
1
40
1
40
1
10
-1.944159
20
-17.958153
30
0
10
-2.041878
20
-17.958153
30
0
10
-2.120547
20
-17.879131
30
0
10
-2.120547
20
-17.781764
30
0
0
LWPOLYLINE
5
4B
100
AcDbEntity
8
FirstCut
6
ByLayer
62
256
370
-1
100
AcDbPolyline
90
2
70
0
43
0
10
-0.176389
20
-17.958153
10
-1.944159
20
-17.958153
0
SPLINE
5
4C
100
AcDbEntity
8
FirstCut
6
ByLayer
62
256
370
-1
100
AcDbSpline
210
0
220
0
230
1
70
8
71
3
72
8
73
4
74
0
42
1e-07
43
1e-07
40
0
40
0
40
0
40
0
40
1
40
1
40
1
40
1
10
-2.120547
20
5.6132876125e-13
30
0
10
-2.120547
20
0.0973660000006
30
0
10
-2.041878
20
0.176389000001
30
0
10
-1.944159
20
0.176389000001
30
0
0
LWPOLYLINE
5
4D
100
AcDbEntity
8
FirstCut
6
ByLayer
62
256
370
-1
100
AcDbPolyline
90
2
70
0
43
0
10
-2.120547
20
-17.781764
10
-2.120547
20
5.6132876125e-13
0
SPLINE
5
4E
100
AcDbEntity
8
FirstCut
6
ByLayer
62
256
370
-1
100
AcDbSpline
210
0
220
0
230
1
70
8
71
3
72
8
73
4
74
0
42
1e-07
43
1e-07
40
0
40
0
40
0
40
0
40
1
40
1
40
1
40
1
10
-0.176389
20
0.176389000001
30
0
10
-0.079022
20
0.176389000001
30
0
10
-1.42108547152e-14
20
0.0973660000006
30
0
10
-1.42108547152e-14
20
5.6132876125e-13
30
0
0
LWPOLYLINE
5
4F
100
AcDbEntity
8
FirstCut
6
ByLayer
62
256
370
-1
100
AcDbPolyline
90
2
70
0
43
0
10
-1.944159
20
0.176389000001
10
-0.176389
20
0.176389000001
0
SPLINE
5
50
100
AcDbEntity
8
FirstCut
6
ByLayer
62
256
370
-1
100
AcDbSpline
210
0
220
0
230
1
70
8
71
3
72
8
73
4
74
0
42
1e-07
43
1e-07
40
0
40
0
40
0
40
0
40
1
40
1
40
1
40
1
10
-1.42108547152e-14
20
-17.781764
30
0
10
-1.42108547152e-14
20
-17.879131
30
0
10
-0.079022
20
-17.958153
30
0
10
-0.176389
20
-17.958153
30
0
0
LWPOLYLINE
5
51
100
AcDbEntity
8
FirstCut
6
ByLayer
62
256
370
-1
100
AcDbPolyline
90
2
70
0
43
0
10
-1.42108547152e-14
20
5.6132876125e-13
10
-1.42108547152e-14
20
-17.781764
0
ENDBLK
5
49
330
47
100
AcDbEntity
8
0
100
AcDbBlockEnd
0
ENDSEC
0
SECTION
2
ENTITIES
0
LINE
5
52
100
AcDbEntity
8
FirstCut
6
ByLayer
62
256
370
-1
100
AcDbLine
10
221.673098628
20
13.2224489824
11
221.673098628
21
43.2223179824
0
LINE
5
53
100
AcDbEntity
8
FirstCut
6
ByLayer
62
256
370
-1
100
AcDbLine
10
221.673098628
20
43.2223179824
11
226.073098628
21
43.2223179824
0
LINE
5
54
100
AcDbEntity
8
FirstCut
6
ByLayer
62
256
370
-1
100
AcDbLine
10
226.073098628
20
43.2223179824
11
226.073098628
21
13.2224489824
0
LINE
5
55
100
AcDbEntity
8
FirstCut
6
ByLayer
62
256
370
-1
100
AcDbLine
10
319.612244947
20
43.0831343089
11
324.012244947
21
43.0831343089
0
LINE
5
56
100
AcDbEntity
8
0
6
ByLayer
62
256
370
-1
100
AcDbLine
10
334.484102389
20
75.7595293089
11
273.112244947
21
115.583265309
0
CIRCLE
5
57
100
AcDbEntity
8
FirstCut
6
ByLayer
62
256
370
-1
100
AcDbCircle
10
273.112244947
20
106.974882403
40
1
0
CIRCLE
5
58
100
AcDbEntity
8
FirstCut
6
ByLayer
62
256
370
-1
100
AcDbCircle
10
215.828108446
20
47.4835433089
40
1
0
CIRCLE
5
59
100
AcDbEntity
8
FirstCut
6
ByLayer
62
256
370
-1
100
AcDbCircle
10
330.630993389
20
47.4835433089
40
1
0
LINE
5
5A
100
AcDbEntity
8
FirstCut
6
ByLayer
62
256
370
-1
100
AcDbLine
10
234.043598529
20
69.7415991001
11
236.164145529
21
69.7415991001
0
LINE
5
5B
100
AcDbEntity
8
FirstCut
6
ByLayer
62
256
370
-1
100
AcDbLine
10
236.164145529
20
69.7415991001
11
236.164145529
21
87.8761411001
0
LINE
5
5C
100
AcDbEntity
8
FirstCut
6
ByLayer
62
256
370
-1
100
AcDbLine
10
236.164145529
20
87.8761411001
11
234.043598529
21
87.8761411001
0
LINE
5
5D
100
AcDbEntity
8
FirstCut
6
ByLayer
62
256
370
-1
100
AcDbLine
10
234.043598529
20
87.8761411001
11
234.043598529
21
69.7415991001
0
LINE
5
5E
100
AcDbEntity
8
FirstCut
6
ByLayer
62
256
370
-1
100
AcDbLine
10
309.910699325
20
87.7292653021
11
312.033746541
21
87.7292653021
0
LINE
5
5F
100
AcDbEntity
8
FirstCut
6
ByLayer
62
256
370
-1
100
AcDbLine
10
312.033746541
20
87.7292653021
11
312.033746541
21
69.7415991001
0
LINE
5
60
100
AcDbEntity
8
FirstCut
6
ByLayer
62
256
370
-1
100
AcDbLine
10
312.033746541
20
69.7415991001
11
309.910699325
21
69.7415991001
0
LINE
5
61
100
AcDbEntity
8
FirstCut
6
ByLayer
62
256
370
-1
100
AcDbLine
10
309.910699325
20
69.7415991001
11
309.910699325
21
87.7292653021
0
LINE
5
62
100
AcDbEntity
8
0
6
ByLayer
62
256
370
-1
100
AcDbLine
10
211.197476446
20
75.8987129824
11
211.197476446
21
13.2224489824
0
LINE
5
63
100
AcDbEntity
8
FirstCut
6
ByLayer
62
256
370
-1
100
AcDbLine
10
319.612244947
20
13.2224489824
11
319.612244947
21
43.0831343089
0
LINE
5
64
100
AcDbEntity
8
FirstCut
6
ByLayer
62
256
370
-1
100
AcDbLine
10
324.012244947
20
43.0831343089
11
324.012244947
21
13.2224489824
0
LINE
5
65
100
AcDbEntity
8
0
6
ByLayer
62
256
370
-1
100
AcDbLine
10
269.173834099
20
-54.4806126575
11
269.173834099
21
-16.9538440176
0
LINE
5
66
100
AcDbEntity
8
0
6
ByLayer
62
256
370
-1
100
AcDbLine
10
269.173834099
20
-16.9538440176
11
273.573834099
21
-16.9538440176
0
LINE
5
67
100
AcDbEntity
8
0
6
ByLayer
62
256
370
-1
100
AcDbLine
10
273.573834099
20
-16.9538440176
11
273.573834099
21
-54.4806079496
0
LINE
5
68
100
AcDbEntity
8
0
6
ByLayer
62
256
370
-1
100
AcDbLine
10
211.197476446
20
13.2224489824
11
269.173834099
21
-54.4806126575
0
LINE
5
69
100
AcDbEntity
8
FirstCut
6
ByLayer
62
256
370
-1
100
AcDbLine
10
273.573834099
20
-54.4806126575
11
331.550191752
21
13.2224489824
0
LINE
5
6A
100
AcDbEntity
8
0
6
ByLayer
62
256
370
-1
100
AcDbLine
10
331.550191752
20
13.2224489824
11
334.484102389
21
13.2224489824
0
LINE
5
6B
100
AcDbEntity
8
0
6
ByLayer
62
256
370
-1
100
AcDbLine
10
334.484102389
20
13.2224489824
11
334.484102389
21
75.7595293089
0
LINE
5
6C
100
AcDbEntity
8
0
6
ByLayer
62
256
370
-1
100
AcDbLine
10
331.550191752
20
13.2224489824
11
331.550191752
21
-24.3043196575
0
LINE
5
6D
100
AcDbEntity
8
0
6
ByLayer
62
256
370
-1
100
AcDbLine
10
331.550191752
20
-24.3043196575
11
335.950191752
21
-24.3043196575
0
LINE
5
6E
100
AcDbEntity
8
0
6
ByLayer
62
256
370
-1
100
AcDbLine
10
335.950191752
20
-24.3043196575
11
335.950191752
21
13.2224442745
0
LINE
5
6F
100
AcDbEntity
8
0
6
ByLayer
62
256
370
-1
100
AcDbLine
10
335.950191752
20
13.2224489824
11
393.926549405
21
-54.4806126575
0
LINE
5
70
100
AcDbEntity
8
0
6
ByLayer
62
256
370
-1
100
AcDbLine
10
393.926549405
20
-54.4806126575
11
273.573834099
21
-54.4806126575
0
LINE
5
71
100
AcDbEntity
8
0
6
ByLayer
62
256
370
-1
100
AcDbLine
10
211.197476446
20
75.8987129824
11
273.112244947
21
115.583265309
0
LINE
5
72
100
AcDbEntity
8
FirstCut
6
ByLayer
62
256
370
-1
100
AcDbLine
10
221.673098628
20
13.2224489824
11
226.073098628
21
13.2224489824
0
LINE
5
73
100
AcDbEntity
8
FirstCut
6
ByLayer
62
256
370
-1
100
AcDbLine
10
324.012244947
20
13.2224489824
11
319.612244947
21
13.2224489824
0
LINE
5
74
100
AcDbEntity
8
FirstCut
6
ByLayer
62
256
370
-1
100
AcDbLine
10
221.673098628
20
13.2224489824
11
211.197476446
21
13.2224489824
0
LINE
5
75
100
AcDbEntity
8
FirstCut
6
ByLayer
62
256
370
-1
100
AcDbLine
10
331.550191752
20
13.2224489824
11
324.012244947
21
13.2224489824
0
LINE
5
76
100
AcDbEntity
8
FirstCut
6
ByLayer
62
256
370
-1
100
AcDbLine
10
226.073098628
20
13.2224489824
11
319.612244947
21
13.2224489824
0
ENDSEC
0
SECTION
2
OBJECTS
0
DICTIONARY
5
C
330
0
100
AcDbDictionary
281
1
3
ACAD_GROUP
350
D
0
DICTIONARY
5
D
330
C
100
AcDbDictionary
281
1
0
ENDSEC
0
EOF
